<svg xmlns="http://www.w3.org/2000/svg" version="1.1" xmlns:xlink="http://www.w3.org/1999/xlink" xmlns:svgjs="http://svgjs.dev/svgjs" width="1440" height="560" preserveAspectRatio="none" viewBox="0 0 1440 560"><g mask="url(&quot;#SvgjsMask1009&quot;)" fill="none"><rect width="1440" height="560" x="0" y="0" fill="#0e2a47"></rect><path d="M303.97 614.96C420.86 610.95 516.4 428.21 732.81 427.94 949.22 427.67 947.23 497.94 1161.65 497.94 1376.07 497.94 1481.86 428.17 1590.49 427.94" stroke="rgba(51,121,194,0.58)" stroke-width="2"></path><path d="M276.39 613.9C458.79 597.84 583.88 221.96 895.01 221.76 1206.14 221.56 1346.18 474.28 1513.63 479.36" stroke="rgba(51,121,194,0.58)" stroke-width="2"></path><path d="M231.24 661.13C371.04 635.1 430.17 287.62 656.09 282.91 882.01 278.2 868.52 352.91 1080.95 352.91 1293.37 352.91 1398.15 283.14 1505.8 282.91" stroke="rgba(51,121,194,0.58)" stroke-width="2"></path><path d="M773.87 565.55C893.24 551.26 939.66 298.73 1163.35 283.46 1387.05 268.19 1447.39 124.27 1552.84 121.06" stroke="rgba(51,121,194,0.58)" stroke-width="2"></path><path d="M392.65 595.47C502.58 594.18 603.07 470.9 814.38 470.87 1025.68 470.84 1025.24 540.87 1236.1 540.87 1446.97 540.87 1550.96 471.11 1657.83 470.87" stroke="rgba(51,121,194,0.58)" stroke-width="2"></path></g><defs><mask id="SvgjsMask1009"><rect width="1440" height="560" fill="#ffffff"></rect></mask></defs></svg>